<?xml version="1.0" encoding="utf-8"?>
<!-- Generator: Adobe Illustrator 23.1.0, SVG Export Plug-In . SVG Version: 6.00 Build 0)  -->
<svg version="1.1" id="Layer_2" xmlns="http://www.w3.org/2000/svg" xmlns:xlink="http://www.w3.org/1999/xlink" x="0px" y="0px"
	 width="1000px" height="417.0806885px" viewBox="0 0 1000 417.0806885" enable-background="new 0 0 1000 417.0806885"
	 xml:space="preserve">
<path fill="#7EC252" d="M900.2265625,155.6472626c0,27.5349884,22.3346558,49.8635254,49.8842773,49.8635254
	c27.5545044,0,49.8891602-22.328537,49.8891602-49.8635254c0-27.5496368-22.3346558-49.8861084-49.8891602-49.8861084
	C922.5612183,105.7611542,900.2265625,128.0976257,900.2265625,155.6472626"/>
<path fill="#FFE700" d="M0,112.5100098c0,58.1743164,47.1571426,105.3375549,105.3283997,105.3375549
	c58.1627197,0,105.3259583-47.1632385,105.3259583-105.3375549c0-58.1755333-47.1632385-105.3345032-105.3259583-105.3345032
	C47.1571426,7.1755033,0,54.3344765,0,112.5100098"/>
<path fill="#FF7001" d="M706.3268433,239.4949341c0,69.1914673,56.1576538,125.2600098,125.3356934,125.2600098
	c69.192688,0,125.2685547-56.0685425,125.2685547-125.2600098c0-69.1780548-56.0758667-125.2508621-125.2685547-125.2508621
	C762.4844971,114.244072,706.3268433,170.3168793,706.3268433,239.4949341"/>
<path fill="#D022D1" d="M449.1311951,234.9562225c0,86.8262787,70.3725281,157.1701202,157.1695251,157.1701202
	c86.8018799,0,157.1713257-70.3450623,157.1713257-157.1701202c0-86.8097992-70.37677-157.1701355-157.1713257-157.1701355
	C519.5110474,77.7860947,449.1311951,148.1415405,449.1311951,234.9562225"/>
<path fill="#00D4FF" d="M80.3600235,208.5247803c0,115.1913757,93.3688278,208.5559082,208.5247803,208.5559082
	c115.1822205,0,208.7359924-93.3694153,208.7359924-208.5559082C497.6207886,93.3523407,404.0609131,0,288.8847961,0
	C173.7227478,0,80.3600235,93.3566132,80.3600235,208.5247803"/>
<path fill="#FFFFFF" d="M240.9225922,266.1827393l-23.5120544-31.3058624l22.2559052-26.2416077
	c2.4066925-2.8876648,3.4803314-5.6013641,3.4803314-8.7935944c0-6.9856873-5.7716522-12.8897858-12.6126709-12.8897858
	c-4.137085,0-7.2566833,1.3415985-9.8245087,4.2322998c0,0-30.8144989,36.5647888-31.2942505,37.4278564
	c0-4.4605865-0.010376-8.1655273-0.010376-8.1655273l0.0274658-6.1061249c0-11.0141296-3.3594818-27.5105743-22.9620972-27.5105743
	c-3.5535736,0-6.1378784,0.6164703-9.3496399,2.1381226c-7.7425385,3.6591644-9.6285858,12.2250824-7.8859711,17.3424225
	c1.8610077,5.4603729,6.3222046,9.0810852,12.7683105,8.0227051l-0.0048828,0.8423004l-0.043335-0.0073242l-0.012207,0.7641907
	c0,0.0183105-0.0091553,51.4248505-0.010376,57.4272003c0,7.9140625,5.9114227,13.8859253,13.749176,13.8859253
	c7.838974,0,13.7479706-5.9718628,13.7479706-13.8859253c-0.0030518-5.1405334-0.0061035-19.7796173-0.0079346-32.2458038
	c0.4583893,0.8581848,30.480011,40.5614777,30.480011,40.5614777c2.7289581,3.5377197,6.695755,5.5702515,10.8664093,5.5702515
	c7.0247498,0,13.1797028-6.1622925,13.1797028-13.1791077C243.9475708,271.4221497,242.9612122,268.8378296,240.9225922,266.1827393
	"/>
<path fill="#FFFFFF" d="M615.6943359,248.4051056c-3.8392334,0-7.4282227,1.7029266-10.6265869,5.0611877
	c-5.2027588,5.3394928-10.8462524,7.8298187-17.7629395,7.8298187c-14.257019,0-23.8178711-9.712204-23.8178711-24.2011566
	c0-14.4389038,9.7805786-24.5234222,23.8178711-24.5234222c7.1815796,0,13.0252686,2.5708771,17.8972168,7.8432465
	c3.2081299,3.3631439,6.7849121,5.0672913,10.6339111,5.0672913c7.138855,0,12.949585-5.7386932,12.949585-12.8031158
	c0-3.4766541-1.3757935-6.8751984-3.9503174-9.7854309c-8.5488281-10.1565552-22.5214233-16.2218018-37.3912354-16.2218018
	c-29.3990479,0-52.4124146,22.0752411-52.4124146,50.2694244c0,28.184433,22.9474487,50.2492828,52.2732544,50.2492828
	c14.8710327,0,28.84729-6.0719604,37.4437256-16.2919922c2.6233521-3.3985291,3.9075928-6.5761108,3.9075928-9.7085266
	C628.6561279,254.1523438,622.8356323,248.4051056,615.6943359,248.4051056"/>
<path fill="#FFFFFF" d="M517.2526855,186.9488373c-5.9571838,0-11.2661743,3.5358734-13.5037842,8.9876862l-13.146759,30.6356659
	l-16.2926025-30.7772675c-3.1226501-5.786911-7.7651062-8.8460846-13.4195862-8.8460846
	c-7.9897156,0-14.4895325,6.4894409-14.4895325,14.4822388c0,2.48909,0.7476807,5.3181458,2.0599976,7.7919769l26.64505,47.7296753
	c-2.5092163,3.118988-6.3673706,4.461792-12.9440918,4.461792c-7.8615723,0-13.348175,5.1905823-13.348175,12.6199951
	c0,4.6009521,2.1259155,8.1105957,6.4949341,10.6936646c2.8199158,1.7261353,6.5181274,2.5232849,11.6720886,2.5232849
	c17.6061096,0,29.1317139-7.0644226,36.268158-22.2211304l26.4985657-55.9458466
	c1.225647-2.7277374,1.9873657-4.9171295,1.9873657-7.367157
	C531.734314,193.5768433,525.2338867,186.9488373,517.2526855,186.9488373"/>
<path fill="#FFFFFF" d="M296.2879639,266.5440674c-6.0945129,0-11.0562134-4.9598694-11.0562134-11.0501251
	c0-6.0914917,4.9617004-11.0647888,11.0562134-11.0647888c6.0988159,0,11.070282,4.9732971,11.070282,11.0647888
	C307.3582458,261.584198,302.3867798,266.5440674,296.2879639,266.5440674 M298.954071,186.6155701
	c-13.983551,0-26.6743774,4.3409576-34.8294983,11.9131927c-3.7623291,3.5523529-5.6740112,7.2780457-5.6740112,11.0696564
	c0,6.4803009,5.3285217,11.5561371,12.1298828,11.5561371c2.8198853,0,5.1338196-0.9155579,8.3248291-3.3118744
	c5.2919006-4.5606689,10.9762573-6.7812042,17.3826904-6.7812042c10.7205505,0,16.6264648,5.5018768,16.6264648,15.4862976
	v3.1043396h-22.5305481c-22.6331177,0-36.6935883,10.923172-36.6935883,28.5054779
	c0,17.4724426,13.5203094,29.2342529,33.6478424,29.2342529c10.6704712,0,19.973114-3.1739197,27.0283813-9.1982727
	c1.8591919,5.3822327,6.9520874,9.0054016,12.9605713,9.0054016c7.6729736,0,13.4598694-5.946228,13.4598694-13.8346558v-45.2967224
	C340.7869568,201.7264862,325.5375061,186.6155701,298.954071,186.6155701"/>
<path fill="#FFFFFF" d="M399.2688904,233.1019287c-5.9346008,0-10.7595825-4.8268127-10.7595825-10.7583771
	c0-5.9352264,4.8249817-10.7718048,10.7595825-10.7718048c5.9315796,0,10.7687683,4.8365784,10.7687683,10.7718048
	C410.0376587,228.275116,405.20047,233.1019287,399.2688904,233.1019287 M400.6513977,188.7567444H362.730957
	c-6.715271,0-12.1585388,5.4402313-12.1585388,12.1555176c0,6.5968628,5.2503967,11.9473724,11.7966003,12.1402435v60.3289032
	c0,7.9836426,5.9682007,14.0043335,13.8749084,14.0043335c7.8963623,0,13.8682251-6.0206909,13.8682251-14.0043335v-16.9389648
	h10.5392456c21.8616028,0,37.7275391-14.252121,37.7275391-33.9084625
	C438.3789368,202.650589,422.8566284,188.7567444,400.6513977,188.7567444"/>
<path fill="#FFFFFF" d="M885.7522583,262.4130859c-6.0963745,0-11.0586548-4.9623108-11.0586548-11.0550079
	c0-6.0914917,4.9622803-11.072113,11.0586548-11.072113c6.0988159,0,11.0708618,4.9806213,11.0708618,11.072113
	C896.8231201,257.4507751,891.8510742,262.4130859,885.7522583,262.4130859 M888.1900635,217.7328186h-12.9471436v-16.9499512
	c0-7.9958496-5.9633179-14.0146942-13.8627319-14.0146942c-8.0360718,0-13.8687744,5.8918915-13.8687744,14.0146942v70.6026611
	c0,7.9811707,6.0231323,14.0018616,14.0092163,14.0018616h26.6694336c22.2052612,0,37.7244873-13.8749084,37.7244873-33.7253571
	C925.9145508,232.0069122,910.048645,217.7328186,888.1900635,217.7328186"/>
<path fill="#FFFFFF" d="M817.0734863,188.622467h-55.4508057c-6.7165527,0-12.1585693,5.4371796-12.1585693,12.1542816
	c0,6.6945343,5.5396729,12.2220459,12.2208252,12.2635498c-1.4221802,18.1572723-2.4061279,31.2948608-7.5722656,46.5113678
	c0,0-3.2069092-1.9141235-7.0143433-1.4612122c-9.8257446,1.1682434-13.0131226,10.011261-10.729126,17.0354004
	c2.8577881,8.7881165,11.8826904,11.6946716,19.5245361,11.6946716c16.4152832,0,24.619873-10.1003723,28.6434326-37.9344482
	c1.6479492-11.4078064,3.0615845-24.3830414,4.1053467-35.9507599h14.8014526v60.3850555
	c0,7.932373,5.9241943,13.9237671,13.7772217,13.9237671c7.8554688,0,13.776062-5.991394,13.776062-13.9237671v-70.7723236
	C830.9972534,194.6083679,825.0107422,188.622467,817.0734863,188.622467"/>
<path fill="#FFFFFF" d="M688.0975342,228.9257813c-6.3417358,0-11.5042114-5.171051-11.5042114-11.5152435
	c0-6.3344116,5.1624756-11.5103455,11.5042114-11.5103455s11.5140381,5.1759338,11.5140381,11.5103455
	C699.6115723,223.7547302,694.43927,228.9257813,688.0975342,228.9257813 M731.7853394,219.6542664
	c-2.2131958-10.943924-15.038269-32.9178314-44.5862427-32.9178314c-28.2344971,0-49.5266113,21.4557037-49.5266113,49.9019623
	c0,34.1330872,30.0839233,50.5532532,49.4863281,50.5532532c17.9057617,0,22.6495972-2.7320251,28.7947998-5.4335327
	c5.8387451-2.5733032,9.4814453-7.1071167,9.9758301-12.198822c0.7105103-7.2585144-4.3201904-13.2755432-11.6970825-13.9982147
	c-2.3169556-0.2258453-4.4923096,0.213623-7.0510254,1.4221649c-2.8613892,1.4429016-8.3461914,3.6072693-16.888916,3.6072693
	c-13.7381592,0-23.9398804-7.4721375-25.1850586-15.9013367h41.7443848
	C726.395813,244.6891785,735.2827759,236.9313812,731.7853394,219.6542664"/>
</svg>
