<?xml version="1.0" encoding="utf-8"?>
<!-- Generator: Adobe Illustrator 18.0.0, SVG Export Plug-In . SVG Version: 6.00 Build 0)  -->
<!DOCTYPE svg PUBLIC "-//W3C//DTD SVG 1.1//EN" "http://www.w3.org/Graphics/SVG/1.1/DTD/svg11.dtd">
<svg version="1.1" id="Слой_1" xmlns="http://www.w3.org/2000/svg" xmlns:xlink="http://www.w3.org/1999/xlink" x="0px" y="0px"
	 viewBox="0 0 128 26" enable-background="new 0 0 128 26" xml:space="preserve">
<g>
	<polygon fill-rule="evenodd" clip-rule="evenodd" fill="#010101" points="108.1,10.3 108.1,25 102.9,25 102.9,4.8 110,4.8 
		122.1,18.7 122.1,4.8 127.2,4.8 127.2,25 120.4,25 	"/>
	<rect x="93.3" y="4.8" fill-rule="evenodd" clip-rule="evenodd" fill="#010101" width="5.2" height="20.2"/>
	<polygon fill-rule="evenodd" clip-rule="evenodd" fill="#010101" points="80.3,9.1 80.3,25 75.2,25 75.2,9.1 66.6,9.1 66.6,4.8 
		89,4.8 89,9.1 	"/>
	<path fill-rule="evenodd" clip-rule="evenodd" fill="#E43228" d="M32,1c1.9,0,3.4,1.5,3.4,3.4c0,1.9-1.5,3.4-3.4,3.4
		c-1.9,0-3.4-1.5-3.4-3.4C28.6,2.5,30.1,1,32,1"/>
	<path fill-rule="evenodd" clip-rule="evenodd" fill="#010101" d="M8.4,9.1h9c1.4,0,2.5,1.2,2.5,2.6v6.4c0,1.4-1.1,2.6-2.5,2.6h-9
		c-1.4,0-2.5-1.2-2.5-2.6v-6.4C5.9,10.3,7,9.1,8.4,9.1 M5.2,4.8c-2.4,0-4.4,2-4.4,4.5v11.2c0,2.5,2,4.5,4.4,4.5h15.6
		c2.4,0,4.4-2,4.4-4.5V9.3c0-2.5-2-4.5-4.4-4.5H5.2z"/>
	<path fill-rule="evenodd" clip-rule="evenodd" fill="#010101" d="M62.9,18l0,2.3c0,1.7-0.7,3-1.8,3.8c-0.9,0.6-1.6,0.9-3.3,0.8
		H43.5c-1.2,0-2.1-0.2-3-1c-1-0.9-1.7-2-1.6-3.7l0-1.6l4.9,0c0.1,1.2,1.2,2.3,2.8,2.2l9,0c1.2,0,2.1-0.9,2.1-2c0-1.1-1-2-2.1-2
		l-11.9,0l-0.9,0c-2.1,0-3.8-1.7-3.8-3.8v-0.8l0-2.7c0-1.7,0.7-3,1.9-3.8c0.9-0.6,1.6-0.9,3.3-0.8h14.2c1.2,0,2.1,0.2,3,1
		c1,0.9,1.7,2,1.6,3.7l0,1.6l-4.9,0c-0.1-1.2-1.2-2.3-2.8-2.2l-9,0c-1.2,0-2.1,0.9-2.1,2c0,1.1,1,2,2.1,2l12.4,0l0.4,0
		c2.1,0,3.8,1.7,3.8,3.8V18z"/>
</g>
</svg>
